<svg width="367" height="78" viewBox="0 0 367 78" fill="none" xmlns="http://www.w3.org/2000/svg">
<g filter="url(#filter0_i_136_208)">
<path d="M0.900391 0.525757H309.8L337.587 19.5698L366.687 39.0567V77.5876H54.6581L0.900391 45.2571V0.525757Z" fill="url(#paint0_radial_136_208)"/>
</g>
<path d="M310.668 1.12088L312.405 2.31113L311.533 3.58246L313.27 4.77271L314.141 3.50138L315.878 4.69164L315.007 5.96296L316.744 7.15321L317.615 5.88189L319.352 7.07214L318.48 8.34346L320.217 9.53372L321.088 8.26239L322.825 9.45264L321.954 10.724L323.69 11.9142L324.562 10.6429L326.298 11.8331L325.427 13.1045L327.164 14.2947L328.035 13.0234L329.772 14.2136L328.901 15.485L330.637 16.6752L331.509 15.4039L333.245 16.5942L332.374 17.8655L334.111 19.0557L334.982 17.7844L336.719 18.9747L335.848 20.246L336.716 20.8411L336.723 20.8458L336.73 20.8504L337.538 21.3917L338.396 20.1111L340.012 21.1937L339.155 22.4743L340.771 23.5569L341.629 22.2763L343.246 23.3589L342.388 24.6395L344.005 25.7221L344.862 24.4415L346.479 25.5241L345.621 26.8047L347.238 27.8873L348.096 26.6067L349.712 27.6893L348.855 28.9699L350.471 30.0525L351.329 28.7719L352.946 29.8545L352.088 31.1352L353.705 32.2178L354.562 30.9371L356.179 32.0198L355.321 33.3004L356.938 34.383L357.796 33.1024L359.412 34.185L358.555 35.4656L360.171 36.5482L361.029 35.2676L362.646 36.3502L361.788 37.6308L363.405 38.7134L364.262 37.4328L365.879 38.5154L365.517 39.0567H365.146V39.6098L365.021 39.796L365.146 39.8795V40.127H365.516L365.83 40.3373L365.971 40.127H366.687V42.2676H365.146V44.4082H366.687V46.5488H365.146V48.6894H366.687V50.83H365.146V52.9706H366.687V55.1112H365.146V57.2518H366.687V59.3925H365.146V61.5331H366.687V63.6737H365.146V65.8143H366.687V67.9549H365.146V70.0955H366.687V72.2361H365.146V74.3767H366.687V76.0464H365.661V76.5173H365.146V77.5876H363.608V76.0464H361.556V77.5876H359.503V76.0464H357.45V77.5876H355.397V76.0464H353.344V77.5876H351.291V76.0464H349.239V77.5876H347.186V76.0464H345.133V77.5876H343.08V76.0464H341.027V77.5876H338.974V76.0464H336.922V77.5876H334.869V76.0464H332.816V77.5876H330.763V76.0464H328.71V77.5876H326.658V76.0464H324.605V77.5876H322.552V76.0464H320.499V77.5876H318.446V76.0464H316.393V77.5876H314.341V76.0464H312.288V77.5876H310.235V76.0464H308.182V77.5876H306.129V76.0464H304.076V77.5876H302.024V76.0464H299.971V77.5876H297.918V76.0464H295.865V77.5876H293.812V76.0464H291.759V77.5876H289.707V76.0464H287.654V77.5876H285.601V76.0464H283.548V77.5876H281.495V76.0464H279.443V77.5876H277.39V76.0464H275.337V77.5876H273.284V76.0464H271.231V77.5876H269.178V76.0464H267.126V77.5876H265.073V76.0464H263.02V77.5876H260.967V76.0464H258.914V77.5876H256.861V76.0464H254.809V77.5876H252.756V76.0464H250.703V77.5876H248.65V76.0464H246.597V77.5876H244.544V76.0464H242.492V77.5876H240.439V76.0464H238.386V77.5876H236.333V76.0464H234.28V77.5876H232.228V76.0464H230.175V77.5876H228.122V76.0464H226.069V77.5876H224.016V76.0464H221.963V77.5876H219.911V76.0464H217.858V77.5876H215.805V76.0464H213.752V77.5876H211.699V76.0464H209.646V77.5876H207.594V76.0464H205.541V77.5876H203.488V76.0464H201.435V77.5876H199.382V76.0464H197.329V77.5876H195.277V76.0464H193.224V77.5876H191.171V76.0464H189.118V77.5876H187.065V76.0464H185.013V77.5876H182.96V76.0464H180.907V77.5876H178.854V76.0464H176.801V77.5876H174.748V76.0464H172.696V77.5876H170.643V76.0464H168.59V77.5876H166.537V76.0464H164.484V77.5876H162.431V76.0464H160.379V77.5876H158.326V76.0464H156.273V77.5876H154.22V76.0464H152.167V77.5876H150.114V76.0464H148.062V77.5876H146.009V76.0464H143.956V77.5876H141.903V76.0464H139.85V77.5876H137.798V76.0464H135.745V77.5876H133.692V76.0464H131.639V77.5876H129.586V76.0464H127.533V77.5876H125.481V76.0464H123.428V77.5876H121.375V76.0464H119.322V77.5876H117.269V76.0464H115.216V77.5876H113.164V76.0464H111.111V77.5876H109.058V76.0464H107.005V77.5876H104.952V76.0464H102.899V77.5876H100.847V76.0464H98.7938V77.5876H96.741V76.0464H94.6882V77.5876H92.6354V76.0464H90.5825V77.5876H88.5297V76.0464H86.4769V77.5876H84.4241V76.0464H82.3712V77.5876H80.3184V76.0464H78.2656V77.5876H76.2128V76.0464H74.1599V77.5876H72.1071V76.0464H70.0543V77.5876H68.0015V76.0464H65.9486V77.5876H63.8958V76.0464H61.843V77.5876H59.7902V76.0464H57.7373V77.5876H55.6845V76.0464H55.0859L54.5565 75.728L53.7621 77.0488L51.9702 75.9711L52.7645 74.6503L50.9726 73.5726L50.1783 74.8934L48.3864 73.8157L49.1807 72.4949L47.3888 71.4173L46.5944 72.738L44.8025 71.6603L45.5969 70.3396L43.8049 69.2619L43.0106 70.5827L41.2187 69.505L42.013 68.1842L40.2211 67.1065L39.4268 68.4273L37.6348 67.3496L38.4292 66.0288L36.6372 64.9511L35.8429 66.2719L34.051 65.1942L34.8453 63.8735L33.0534 62.7958L32.2591 64.1166L30.4671 63.0389L31.2615 61.7181L29.4695 60.6404L28.6752 61.9612L26.8833 60.8835L27.6776 59.5627L25.8857 58.485L25.0914 59.8058L23.2994 58.7281L24.0938 57.4074L22.3019 56.3297L21.5075 57.6504L19.7156 56.5728L20.5099 55.252L18.718 54.1743L17.9237 55.4951L16.1317 54.4174L16.9261 53.0966L15.1342 52.0189L14.3398 53.3397L12.5479 52.262L13.3422 50.9412L11.5503 49.8636L10.756 51.1843L8.96405 50.1066L9.75838 48.7859L7.96646 47.7082L7.17213 49.029L5.3802 47.9513L6.17453 46.6305L4.38261 45.5528L3.58828 46.8736L1.79635 45.7959L2.12042 45.2571H2.44163V44.723L2.59068 44.4751L2.44163 44.3855V44.2404H2.20046L1.69472 43.9363L1.5118 44.2404H0.900391V42.2072H2.44163V40.174H0.900391V38.1407H2.44163V36.1075H0.900391V34.0742H2.44163V32.041H0.900391V30.0078H2.44163V27.9745H0.900391V25.9413H2.44163V23.908H0.900391V21.8748H2.44163V19.8415H0.900391V17.8083H2.44163V15.7751H0.900391V13.7418H2.44163V11.7086H0.900391V9.67534H2.44163V7.6421H0.900391V5.60886H2.44163V3.57562H0.900391V2.06699H1.93027V1.54238H2.44163V0.525757H3.9896V2.06699H6.04893V0.525757H8.10825V2.06699H10.1676V0.525757H12.2269V2.06699H14.2862V0.525757H16.3456V2.06699H18.4049V0.525757H20.4642V2.06699H22.5235V0.525757H24.5829V2.06699H26.6422V0.525757H28.7015V2.06699H30.7608V0.525757H32.8202V2.06699H34.8795V0.525757H36.9388V2.06699H38.9981V0.525757H41.0575V2.06699H43.1168V0.525757H45.1761V2.06699H47.2354V0.525757H49.2948V2.06699H51.3541V0.525757H53.4134V2.06699H55.4727V0.525757H57.5321V2.06699H59.5914V0.525757H61.6507V2.06699H63.71V0.525757H65.7694V2.06699H67.8287V0.525757H69.888V2.06699H71.9473V0.525757H74.0067V2.06699H76.066V0.525757H78.1253V2.06699H80.1847V0.525757H82.244V2.06699H84.3033V0.525757H86.3626V2.06699H88.422V0.525757H90.4813V2.06699H92.5406V0.525757H94.5999V2.06699H96.6593V0.525757H98.7186V2.06699H100.778V0.525757H102.837V2.06699H104.897V0.525757H106.956V2.06699H109.015V0.525757H111.075V2.06699H113.134V0.525757H115.193V2.06699H117.253V0.525757H119.312V2.06699H121.371V0.525757H123.431V2.06699H125.49V0.525757H127.549V2.06699H129.608V0.525757H131.668V2.06699H133.727V0.525757H135.786V2.06699H137.846V0.525757H139.905V2.06699H141.964V0.525757H144.024V2.06699H146.083V0.525757H148.142V2.06699H150.202V0.525757H152.261V2.06699H154.32V0.525757H156.38V2.06699H158.439V0.525757H160.498V2.06699H162.558V0.525757H164.617V2.06699H166.676V0.525757H168.736V2.06699H170.795V0.525757H172.854V2.06699H174.914V0.525757H176.973V2.06699H179.032V0.525757H181.092V2.06699H183.151V0.525757H185.21V2.06699H187.27V0.525757H189.329V2.06699H191.388V0.525757H193.448V2.06699H195.507V0.525757H197.566V2.06699H199.626V0.525757H201.685V2.06699H203.744V0.525757H205.804V2.06699H207.863V0.525757H209.922V2.06699H211.982V0.525757H214.041V2.06699H216.1V0.525757H218.16V2.06699H220.219V0.525757H222.278V2.06699H224.337V0.525757H226.397V2.06699H228.456V0.525757H230.515V2.06699H232.575V0.525757H234.634V2.06699H236.693V0.525757H238.753V2.06699H240.812V0.525757H242.871V2.06699H244.931V0.525757H246.99V2.06699H249.049V0.525757H251.109V2.06699H253.168V0.525757H255.227V2.06699H257.287V0.525757H259.346V2.06699H261.405V0.525757H263.465V2.06699H265.524V0.525757H267.583V2.06699H269.643V0.525757H271.702V2.06699H273.761V0.525757H275.821V2.06699H277.88V0.525757H279.939V2.06699H281.999V0.525757H284.058V2.06699H286.117V0.525757H288.177V2.06699H290.236V0.525757H292.295V2.06699H294.355V0.525757H296.414V2.06699H298.473V0.525757H300.533V2.06699H302.592V0.525757H304.651V2.06699H306.711V0.525757H308.77V2.06699H309.322L309.797 2.3922L310.668 1.12088Z" stroke="url(#paint1_radial_136_208)" stroke-width="3.08247" stroke-dasharray="2.05 2.05"/>
<path d="M310.668 1.12088L312.405 2.31113L311.533 3.58246L313.27 4.77271L314.141 3.50138L315.878 4.69164L315.007 5.96296L316.744 7.15321L317.615 5.88189L319.352 7.07214L318.48 8.34346L320.217 9.53372L321.088 8.26239L322.825 9.45264L321.954 10.724L323.69 11.9142L324.562 10.6429L326.298 11.8331L325.427 13.1045L327.164 14.2947L328.035 13.0234L329.772 14.2136L328.901 15.485L330.637 16.6752L331.509 15.4039L333.245 16.5942L332.374 17.8655L334.111 19.0557L334.982 17.7844L336.719 18.9747L335.848 20.246L336.716 20.8411L336.723 20.8458L336.73 20.8504L337.538 21.3917L338.396 20.1111L340.012 21.1937L339.155 22.4743L340.771 23.5569L341.629 22.2763L343.246 23.3589L342.388 24.6395L344.005 25.7221L344.862 24.4415L346.479 25.5241L345.621 26.8047L347.238 27.8873L348.096 26.6067L349.712 27.6893L348.855 28.9699L350.471 30.0525L351.329 28.7719L352.946 29.8545L352.088 31.1352L353.705 32.2178L354.562 30.9371L356.179 32.0198L355.321 33.3004L356.938 34.383L357.796 33.1024L359.412 34.185L358.555 35.4656L360.171 36.5482L361.029 35.2676L362.646 36.3502L361.788 37.6308L363.405 38.7134L364.262 37.4328L365.879 38.5154L365.517 39.0567H365.146V39.6098L365.021 39.796L365.146 39.8795V40.127H365.516L365.83 40.3373L365.971 40.127H366.687V42.2676H365.146V44.4082H366.687V46.5488H365.146V48.6894H366.687V50.83H365.146V52.9706H366.687V55.1112H365.146V57.2518H366.687V59.3925H365.146V61.5331H366.687V63.6737H365.146V65.8143H366.687V67.9549H365.146V70.0955H366.687V72.2361H365.146V74.3767H366.687V76.0464H365.661V76.5173H365.146V77.5876H363.608V76.0464H361.556V77.5876H359.503V76.0464H357.45V77.5876H355.397V76.0464H353.344V77.5876H351.291V76.0464H349.239V77.5876H347.186V76.0464H345.133V77.5876H343.08V76.0464H341.027V77.5876H338.974V76.0464H336.922V77.5876H334.869V76.0464H332.816V77.5876H330.763V76.0464H328.71V77.5876H326.658V76.0464H324.605V77.5876H322.552V76.0464H320.499V77.5876H318.446V76.0464H316.393V77.5876H314.341V76.0464H312.288V77.5876H310.235V76.0464H308.182V77.5876H306.129V76.0464H304.076V77.5876H302.024V76.0464H299.971V77.5876H297.918V76.0464H295.865V77.5876H293.812V76.0464H291.759V77.5876H289.707V76.0464H287.654V77.5876H285.601V76.0464H283.548V77.5876H281.495V76.0464H279.443V77.5876H277.39V76.0464H275.337V77.5876H273.284V76.0464H271.231V77.5876H269.178V76.0464H267.126V77.5876H265.073V76.0464H263.02V77.5876H260.967V76.0464H258.914V77.5876H256.861V76.0464H254.809V77.5876H252.756V76.0464H250.703V77.5876H248.65V76.0464H246.597V77.5876H244.544V76.0464H242.492V77.5876H240.439V76.0464H238.386V77.5876H236.333V76.0464H234.28V77.5876H232.228V76.0464H230.175V77.5876H228.122V76.0464H226.069V77.5876H224.016V76.0464H221.963V77.5876H219.911V76.0464H217.858V77.5876H215.805V76.0464H213.752V77.5876H211.699V76.0464H209.646V77.5876H207.594V76.0464H205.541V77.5876H203.488V76.0464H201.435V77.5876H199.382V76.0464H197.329V77.5876H195.277V76.0464H193.224V77.5876H191.171V76.0464H189.118V77.5876H187.065V76.0464H185.013V77.5876H182.96V76.0464H180.907V77.5876H178.854V76.0464H176.801V77.5876H174.748V76.0464H172.696V77.5876H170.643V76.0464H168.59V77.5876H166.537V76.0464H164.484V77.5876H162.431V76.0464H160.379V77.5876H158.326V76.0464H156.273V77.5876H154.22V76.0464H152.167V77.5876H150.114V76.0464H148.062V77.5876H146.009V76.0464H143.956V77.5876H141.903V76.0464H139.85V77.5876H137.798V76.0464H135.745V77.5876H133.692V76.0464H131.639V77.5876H129.586V76.0464H127.533V77.5876H125.481V76.0464H123.428V77.5876H121.375V76.0464H119.322V77.5876H117.269V76.0464H115.216V77.5876H113.164V76.0464H111.111V77.5876H109.058V76.0464H107.005V77.5876H104.952V76.0464H102.899V77.5876H100.847V76.0464H98.7938V77.5876H96.741V76.0464H94.6882V77.5876H92.6354V76.0464H90.5825V77.5876H88.5297V76.0464H86.4769V77.5876H84.4241V76.0464H82.3712V77.5876H80.3184V76.0464H78.2656V77.5876H76.2128V76.0464H74.1599V77.5876H72.1071V76.0464H70.0543V77.5876H68.0015V76.0464H65.9486V77.5876H63.8958V76.0464H61.843V77.5876H59.7902V76.0464H57.7373V77.5876H55.6845V76.0464H55.0859L54.5565 75.728L53.7621 77.0488L51.9702 75.9711L52.7645 74.6503L50.9726 73.5726L50.1783 74.8934L48.3864 73.8157L49.1807 72.4949L47.3888 71.4173L46.5944 72.738L44.8025 71.6603L45.5969 70.3396L43.8049 69.2619L43.0106 70.5827L41.2187 69.505L42.013 68.1842L40.2211 67.1065L39.4268 68.4273L37.6348 67.3496L38.4292 66.0288L36.6372 64.9511L35.8429 66.2719L34.051 65.1942L34.8453 63.8735L33.0534 62.7958L32.2591 64.1166L30.4671 63.0389L31.2615 61.7181L29.4695 60.6404L28.6752 61.9612L26.8833 60.8835L27.6776 59.5627L25.8857 58.485L25.0914 59.8058L23.2994 58.7281L24.0938 57.4074L22.3019 56.3297L21.5075 57.6504L19.7156 56.5728L20.5099 55.252L18.718 54.1743L17.9237 55.4951L16.1317 54.4174L16.9261 53.0966L15.1342 52.0189L14.3398 53.3397L12.5479 52.262L13.3422 50.9412L11.5503 49.8636L10.756 51.1843L8.96405 50.1066L9.75838 48.7859L7.96646 47.7082L7.17213 49.029L5.3802 47.9513L6.17453 46.6305L4.38261 45.5528L3.58828 46.8736L1.79635 45.7959L2.12042 45.2571H2.44163V44.723L2.59068 44.4751L2.44163 44.3855V44.2404H2.20046L1.69472 43.9363L1.5118 44.2404H0.900391V42.2072H2.44163V40.174H0.900391V38.1407H2.44163V36.1075H0.900391V34.0742H2.44163V32.041H0.900391V30.0078H2.44163V27.9745H0.900391V25.9413H2.44163V23.908H0.900391V21.8748H2.44163V19.8415H0.900391V17.8083H2.44163V15.7751H0.900391V13.7418H2.44163V11.7086H0.900391V9.67534H2.44163V7.6421H0.900391V5.60886H2.44163V3.57562H0.900391V2.06699H1.93027V1.54238H2.44163V0.525757H3.9896V2.06699H6.04893V0.525757H8.10825V2.06699H10.1676V0.525757H12.2269V2.06699H14.2862V0.525757H16.3456V2.06699H18.4049V0.525757H20.4642V2.06699H22.5235V0.525757H24.5829V2.06699H26.6422V0.525757H28.7015V2.06699H30.7608V0.525757H32.8202V2.06699H34.8795V0.525757H36.9388V2.06699H38.9981V0.525757H41.0575V2.06699H43.1168V0.525757H45.1761V2.06699H47.2354V0.525757H49.2948V2.06699H51.3541V0.525757H53.4134V2.06699H55.4727V0.525757H57.5321V2.06699H59.5914V0.525757H61.6507V2.06699H63.71V0.525757H65.7694V2.06699H67.8287V0.525757H69.888V2.06699H71.9473V0.525757H74.0067V2.06699H76.066V0.525757H78.1253V2.06699H80.1847V0.525757H82.244V2.06699H84.3033V0.525757H86.3626V2.06699H88.422V0.525757H90.4813V2.06699H92.5406V0.525757H94.5999V2.06699H96.6593V0.525757H98.7186V2.06699H100.778V0.525757H102.837V2.06699H104.897V0.525757H106.956V2.06699H109.015V0.525757H111.075V2.06699H113.134V0.525757H115.193V2.06699H117.253V0.525757H119.312V2.06699H121.371V0.525757H123.431V2.06699H125.49V0.525757H127.549V2.06699H129.608V0.525757H131.668V2.06699H133.727V0.525757H135.786V2.06699H137.846V0.525757H139.905V2.06699H141.964V0.525757H144.024V2.06699H146.083V0.525757H148.142V2.06699H150.202V0.525757H152.261V2.06699H154.32V0.525757H156.38V2.06699H158.439V0.525757H160.498V2.06699H162.558V0.525757H164.617V2.06699H166.676V0.525757H168.736V2.06699H170.795V0.525757H172.854V2.06699H174.914V0.525757H176.973V2.06699H179.032V0.525757H181.092V2.06699H183.151V0.525757H185.21V2.06699H187.27V0.525757H189.329V2.06699H191.388V0.525757H193.448V2.06699H195.507V0.525757H197.566V2.06699H199.626V0.525757H201.685V2.06699H203.744V0.525757H205.804V2.06699H207.863V0.525757H209.922V2.06699H211.982V0.525757H214.041V2.06699H216.1V0.525757H218.16V2.06699H220.219V0.525757H222.278V2.06699H224.337V0.525757H226.397V2.06699H228.456V0.525757H230.515V2.06699H232.575V0.525757H234.634V2.06699H236.693V0.525757H238.753V2.06699H240.812V0.525757H242.871V2.06699H244.931V0.525757H246.99V2.06699H249.049V0.525757H251.109V2.06699H253.168V0.525757H255.227V2.06699H257.287V0.525757H259.346V2.06699H261.405V0.525757H263.465V2.06699H265.524V0.525757H267.583V2.06699H269.643V0.525757H271.702V2.06699H273.761V0.525757H275.821V2.06699H277.88V0.525757H279.939V2.06699H281.999V0.525757H284.058V2.06699H286.117V0.525757H288.177V2.06699H290.236V0.525757H292.295V2.06699H294.355V0.525757H296.414V2.06699H298.473V0.525757H300.533V2.06699H302.592V0.525757H304.651V2.06699H306.711V0.525757H308.77V2.06699H309.322L309.797 2.3922L310.668 1.12088Z" stroke="url(#paint2_radial_136_208)" stroke-width="3.08247" stroke-dasharray="2.05 2.05"/>
<path d="M310.668 1.12088L312.405 2.31113L311.533 3.58246L313.27 4.77271L314.141 3.50138L315.878 4.69164L315.007 5.96296L316.744 7.15321L317.615 5.88189L319.352 7.07214L318.48 8.34346L320.217 9.53372L321.088 8.26239L322.825 9.45264L321.954 10.724L323.69 11.9142L324.562 10.6429L326.298 11.8331L325.427 13.1045L327.164 14.2947L328.035 13.0234L329.772 14.2136L328.901 15.485L330.637 16.6752L331.509 15.4039L333.245 16.5942L332.374 17.8655L334.111 19.0557L334.982 17.7844L336.719 18.9747L335.848 20.246L336.716 20.8411L336.723 20.8458L336.73 20.8504L337.538 21.3917L338.396 20.1111L340.012 21.1937L339.155 22.4743L340.771 23.5569L341.629 22.2763L343.246 23.3589L342.388 24.6395L344.005 25.7221L344.862 24.4415L346.479 25.5241L345.621 26.8047L347.238 27.8873L348.096 26.6067L349.712 27.6893L348.855 28.9699L350.471 30.0525L351.329 28.7719L352.946 29.8545L352.088 31.1352L353.705 32.2178L354.562 30.9371L356.179 32.0198L355.321 33.3004L356.938 34.383L357.796 33.1024L359.412 34.185L358.555 35.4656L360.171 36.5482L361.029 35.2676L362.646 36.3502L361.788 37.6308L363.405 38.7134L364.262 37.4328L365.879 38.5154L365.517 39.0567H365.146V39.6098L365.021 39.796L365.146 39.8795V40.127H365.516L365.83 40.3373L365.971 40.127H366.687V42.2676H365.146V44.4082H366.687V46.5488H365.146V48.6894H366.687V50.83H365.146V52.9706H366.687V55.1112H365.146V57.2518H366.687V59.3925H365.146V61.5331H366.687V63.6737H365.146V65.8143H366.687V67.9549H365.146V70.0955H366.687V72.2361H365.146V74.3767H366.687V76.0464H365.661V76.5173H365.146V77.5876H363.608V76.0464H361.556V77.5876H359.503V76.0464H357.45V77.5876H355.397V76.0464H353.344V77.5876H351.291V76.0464H349.239V77.5876H347.186V76.0464H345.133V77.5876H343.08V76.0464H341.027V77.5876H338.974V76.0464H336.922V77.5876H334.869V76.0464H332.816V77.5876H330.763V76.0464H328.71V77.5876H326.658V76.0464H324.605V77.5876H322.552V76.0464H320.499V77.5876H318.446V76.0464H316.393V77.5876H314.341V76.0464H312.288V77.5876H310.235V76.0464H308.182V77.5876H306.129V76.0464H304.076V77.5876H302.024V76.0464H299.971V77.5876H297.918V76.0464H295.865V77.5876H293.812V76.0464H291.759V77.5876H289.707V76.0464H287.654V77.5876H285.601V76.0464H283.548V77.5876H281.495V76.0464H279.443V77.5876H277.39V76.0464H275.337V77.5876H273.284V76.0464H271.231V77.5876H269.178V76.0464H267.126V77.5876H265.073V76.0464H263.02V77.5876H260.967V76.0464H258.914V77.5876H256.861V76.0464H254.809V77.5876H252.756V76.0464H250.703V77.5876H248.65V76.0464H246.597V77.5876H244.544V76.0464H242.492V77.5876H240.439V76.0464H238.386V77.5876H236.333V76.0464H234.28V77.5876H232.228V76.0464H230.175V77.5876H228.122V76.0464H226.069V77.5876H224.016V76.0464H221.963V77.5876H219.911V76.0464H217.858V77.5876H215.805V76.0464H213.752V77.5876H211.699V76.0464H209.646V77.5876H207.594V76.0464H205.541V77.5876H203.488V76.0464H201.435V77.5876H199.382V76.0464H197.329V77.5876H195.277V76.0464H193.224V77.5876H191.171V76.0464H189.118V77.5876H187.065V76.0464H185.013V77.5876H182.96V76.0464H180.907V77.5876H178.854V76.0464H176.801V77.5876H174.748V76.0464H172.696V77.5876H170.643V76.0464H168.59V77.5876H166.537V76.0464H164.484V77.5876H162.431V76.0464H160.379V77.5876H158.326V76.0464H156.273V77.5876H154.22V76.0464H152.167V77.5876H150.114V76.0464H148.062V77.5876H146.009V76.0464H143.956V77.5876H141.903V76.0464H139.85V77.5876H137.798V76.0464H135.745V77.5876H133.692V76.0464H131.639V77.5876H129.586V76.0464H127.533V77.5876H125.481V76.0464H123.428V77.5876H121.375V76.0464H119.322V77.5876H117.269V76.0464H115.216V77.5876H113.164V76.0464H111.111V77.5876H109.058V76.0464H107.005V77.5876H104.952V76.0464H102.899V77.5876H100.847V76.0464H98.7938V77.5876H96.741V76.0464H94.6882V77.5876H92.6354V76.0464H90.5825V77.5876H88.5297V76.0464H86.4769V77.5876H84.4241V76.0464H82.3712V77.5876H80.3184V76.0464H78.2656V77.5876H76.2128V76.0464H74.1599V77.5876H72.1071V76.0464H70.0543V77.5876H68.0015V76.0464H65.9486V77.5876H63.8958V76.0464H61.843V77.5876H59.7902V76.0464H57.7373V77.5876H55.6845V76.0464H55.0859L54.5565 75.728L53.7621 77.0488L51.9702 75.9711L52.7645 74.6503L50.9726 73.5726L50.1783 74.8934L48.3864 73.8157L49.1807 72.4949L47.3888 71.4173L46.5944 72.738L44.8025 71.6603L45.5969 70.3396L43.8049 69.2619L43.0106 70.5827L41.2187 69.505L42.013 68.1842L40.2211 67.1065L39.4268 68.4273L37.6348 67.3496L38.4292 66.0288L36.6372 64.9511L35.8429 66.2719L34.051 65.1942L34.8453 63.8735L33.0534 62.7958L32.2591 64.1166L30.4671 63.0389L31.2615 61.7181L29.4695 60.6404L28.6752 61.9612L26.8833 60.8835L27.6776 59.5627L25.8857 58.485L25.0914 59.8058L23.2994 58.7281L24.0938 57.4074L22.3019 56.3297L21.5075 57.6504L19.7156 56.5728L20.5099 55.252L18.718 54.1743L17.9237 55.4951L16.1317 54.4174L16.9261 53.0966L15.1342 52.0189L14.3398 53.3397L12.5479 52.262L13.3422 50.9412L11.5503 49.8636L10.756 51.1843L8.96405 50.1066L9.75838 48.7859L7.96646 47.7082L7.17213 49.029L5.3802 47.9513L6.17453 46.6305L4.38261 45.5528L3.58828 46.8736L1.79635 45.7959L2.12042 45.2571H2.44163V44.723L2.59068 44.4751L2.44163 44.3855V44.2404H2.20046L1.69472 43.9363L1.5118 44.2404H0.900391V42.2072H2.44163V40.174H0.900391V38.1407H2.44163V36.1075H0.900391V34.0742H2.44163V32.041H0.900391V30.0078H2.44163V27.9745H0.900391V25.9413H2.44163V23.908H0.900391V21.8748H2.44163V19.8415H0.900391V17.8083H2.44163V15.7751H0.900391V13.7418H2.44163V11.7086H0.900391V9.67534H2.44163V7.6421H0.900391V5.60886H2.44163V3.57562H0.900391V2.06699H1.93027V1.54238H2.44163V0.525757H3.9896V2.06699H6.04893V0.525757H8.10825V2.06699H10.1676V0.525757H12.2269V2.06699H14.2862V0.525757H16.3456V2.06699H18.4049V0.525757H20.4642V2.06699H22.5235V0.525757H24.5829V2.06699H26.6422V0.525757H28.7015V2.06699H30.7608V0.525757H32.8202V2.06699H34.8795V0.525757H36.9388V2.06699H38.9981V0.525757H41.0575V2.06699H43.1168V0.525757H45.1761V2.06699H47.2354V0.525757H49.2948V2.06699H51.3541V0.525757H53.4134V2.06699H55.4727V0.525757H57.5321V2.06699H59.5914V0.525757H61.6507V2.06699H63.71V0.525757H65.7694V2.06699H67.8287V0.525757H69.888V2.06699H71.9473V0.525757H74.0067V2.06699H76.066V0.525757H78.1253V2.06699H80.1847V0.525757H82.244V2.06699H84.3033V0.525757H86.3626V2.06699H88.422V0.525757H90.4813V2.06699H92.5406V0.525757H94.5999V2.06699H96.6593V0.525757H98.7186V2.06699H100.778V0.525757H102.837V2.06699H104.897V0.525757H106.956V2.06699H109.015V0.525757H111.075V2.06699H113.134V0.525757H115.193V2.06699H117.253V0.525757H119.312V2.06699H121.371V0.525757H123.431V2.06699H125.49V0.525757H127.549V2.06699H129.608V0.525757H131.668V2.06699H133.727V0.525757H135.786V2.06699H137.846V0.525757H139.905V2.06699H141.964V0.525757H144.024V2.06699H146.083V0.525757H148.142V2.06699H150.202V0.525757H152.261V2.06699H154.32V0.525757H156.38V2.06699H158.439V0.525757H160.498V2.06699H162.558V0.525757H164.617V2.06699H166.676V0.525757H168.736V2.06699H170.795V0.525757H172.854V2.06699H174.914V0.525757H176.973V2.06699H179.032V0.525757H181.092V2.06699H183.151V0.525757H185.21V2.06699H187.27V0.525757H189.329V2.06699H191.388V0.525757H193.448V2.06699H195.507V0.525757H197.566V2.06699H199.626V0.525757H201.685V2.06699H203.744V0.525757H205.804V2.06699H207.863V0.525757H209.922V2.06699H211.982V0.525757H214.041V2.06699H216.1V0.525757H218.16V2.06699H220.219V0.525757H222.278V2.06699H224.337V0.525757H226.397V2.06699H228.456V0.525757H230.515V2.06699H232.575V0.525757H234.634V2.06699H236.693V0.525757H238.753V2.06699H240.812V0.525757H242.871V2.06699H244.931V0.525757H246.99V2.06699H249.049V0.525757H251.109V2.06699H253.168V0.525757H255.227V2.06699H257.287V0.525757H259.346V2.06699H261.405V0.525757H263.465V2.06699H265.524V0.525757H267.583V2.06699H269.643V0.525757H271.702V2.06699H273.761V0.525757H275.821V2.06699H277.88V0.525757H279.939V2.06699H281.999V0.525757H284.058V2.06699H286.117V0.525757H288.177V2.06699H290.236V0.525757H292.295V2.06699H294.355V0.525757H296.414V2.06699H298.473V0.525757H300.533V2.06699H302.592V0.525757H304.651V2.06699H306.711V0.525757H308.77V2.06699H309.322L309.797 2.3922L310.668 1.12088Z" stroke="url(#paint3_linear_136_208)" stroke-width="3.08247" stroke-dasharray="2.05 2.05"/>
<defs>
<filter id="filter0_i_136_208" x="0.900391" y="0.525757" width="365.787" height="77.0619" filterUnits="userSpaceOnUse" color-interpolation-filters="sRGB">
<feFlood flood-opacity="0" result="BackgroundImageFix"/>
<feBlend mode="normal" in="SourceGraphic" in2="BackgroundImageFix" result="shape"/>
<feColorMatrix in="SourceAlpha" type="matrix" values="0 0 0 0 0 0 0 0 0 0 0 0 0 0 0 0 0 0 127 0" result="hardAlpha"/>
<feOffset/>
<feGaussianBlur stdDeviation="21.5773"/>
<feComposite in2="hardAlpha" operator="arithmetic" k2="-1" k3="1"/>
<feColorMatrix type="matrix" values="0 0 0 0 0 0 0 0 0 0 0 0 0 0 0 0 0 0 1 0"/>
<feBlend mode="normal" in2="shape" result="effect1_innerShadow_136_208"/>
</filter>
<radialGradient id="paint0_radial_136_208" cx="0" cy="0" r="1" gradientUnits="userSpaceOnUse" gradientTransform="translate(4.19055 2.8185) rotate(11.5287) scale(364.233 228.271)">
<stop stop-color="white" stop-opacity="0.4"/>
<stop offset="1" stop-color="white" stop-opacity="0"/>
</radialGradient>
<radialGradient id="paint1_radial_136_208" cx="0" cy="0" r="1" gradientUnits="userSpaceOnUse" gradientTransform="translate(4.19055 2.8185) rotate(11.5287) scale(364.233 228.271)">
<stop stop-color="#D8D8D8" stop-opacity="0"/>
<stop offset="1" stop-color="#D8D8D8"/>
</radialGradient>
<radialGradient id="paint2_radial_136_208" cx="0" cy="0" r="1" gradientUnits="userSpaceOnUse" gradientTransform="translate(5.93237 75.2312) rotate(-11.5245) scale(362.45 226.84)">
<stop stop-color="#D8D8D8" stop-opacity="0"/>
<stop offset="1" stop-color="#D8D8D8"/>
</radialGradient>
<linearGradient id="paint3_linear_136_208" x1="7.67422" y1="2.62744" x2="97.3897" y2="197.189" gradientUnits="userSpaceOnUse">
<stop stop-color="white" stop-opacity="0.4"/>
<stop offset="1" stop-color="white" stop-opacity="0"/>
</linearGradient>
</defs>
</svg>
